/* XPM */
static char * show_location_iptool_16_xpm[] = {
"16 16 173 2",
"  	c None",
". 	c #427EA0",
"+ 	c #85A0B1",
"@ 	c #93A8B4",
"# 	c #879EAD",
"$ 	c #8D959B",
"% 	c #176394",
"& 	c #63ADC7",
"* 	c #A0BEC6",
"= 	c #9AC6D3",
"- 	c #B7E5F3",
"; 	c #A1DAEC",
"> 	c #98CADE",
", 	c #A5BAC6",
"' 	c #848486",
") 	c #373C3F",
"! 	c #2C5877",
"~ 	c #4E8FB1",
"{ 	c #AAB6BE",
"] 	c #6C94A9",
"^ 	c #9EE0F7",
"/ 	c #A8DFF6",
"( 	c #A0D6ED",
"_ 	c #A0D5EE",
": 	c #94BBD4",
"< 	c #9BAAB8",
"[ 	c #747575",
"} 	c #3C454B",
"| 	c #59666B",
"1 	c #A6A9AA",
"2 	c #7A899A",
"3 	c #7DACC4",
"4 	c #9FDDF6",
"5 	c #99D4EF",
"6 	c #A1DAF6",
"7 	c #A5DDF8",
"8 	c #9ACDEB",
"9 	c #9AC6E5",
"0 	c #99A7B0",
"a 	c #383839",
"b 	c #4E5A61",
"c 	c #586268",
"d 	c #AAB1B6",
"e 	c #687E94",
"f 	c #637989",
"g 	c #7791A1",
"h 	c #91C9E4",
"i 	c #9BD9F8",
"j 	c #98D1EF",
"k 	c #9BD4F1",
"l 	c #A3DEFD",
"m 	c #A2C3DB",
"n 	c #4D4C4B",
"o 	c #454D51",
"p 	c #394145",
"q 	c #4A5155",
"r 	c #A4ABB2",
"s 	c #56697F",
"t 	c #8097A3",
"u 	c #A9D7EA",
"v 	c #AEE3F9",
"w 	c #A3CDE8",
"x 	c #9BC1DF",
"y 	c #A5CDE7",
"z 	c #B5E4FB",
"A 	c #ADBFD5",
"B 	c #4C4C4B",
"C 	c #0C0F10",
"D 	c #31383D",
"E 	c #343C40",
"F 	c #3A4247",
"G 	c #A2A7AA",
"H 	c #667B91",
"I 	c #7AA7BC",
"J 	c #ACE6FA",
"K 	c #AFE5FA",
"L 	c #ADDCF1",
"M 	c #9DC0E0",
"N 	c #9FC1E0",
"O 	c #AED2EE",
"P 	c #AFBFCF",
"Q 	c #393938",
"R 	c #0A0C0D",
"S 	c #343B3F",
"T 	c #2D3438",
"U 	c #2C3439",
"V 	c #7D8081",
"W 	c #95A6B6",
"X 	c #63A6D5",
"Y 	c #9DD6F3",
"Z 	c #ACDBF0",
"` 	c #AFDAEE",
" .	c #A1C0DC",
"..	c #9DB5D2",
"+.	c #AFBFDF",
"@.	c #8C8F93",
"#.	c #131515",
"$.	c #0B0C0D",
"%.	c #373F43",
"&.	c #292F32",
"*.	c #293033",
"=.	c #959798",
"-.	c #7B8C9D",
";.	c #69879C",
">.	c #9AABB2",
",.	c #A7B7C1",
"'.	c #9DB3CA",
").	c #AABAD4",
"!.	c #AAB2BE",
"~.	c #343534",
"{.	c #050708",
"].	c #0C0D0F",
"^.	c #292F33",
"/.	c #202629",
"(.	c #21282C",
"_.	c #95979D",
":.	c #B8B7B6",
"<.	c #8C9194",
"[.	c #909EA5",
"}.	c #A8B7C6",
"|.	c #B0BBC9",
"1.	c #9499A0",
"2.	c #383B40",
"3.	c #050707",
"4.	c #070909",
"5.	c #2E3438",
"6.	c #181E21",
"7.	c #7E8089",
"8.	c #CACACB",
"9.	c #454749",
"0.	c #333B49",
"a.	c #556177",
"b.	c #59657D",
"c.	c #3E4756",
"d.	c #141619",
"e.	c #06090A",
"f.	c #08090A",
"g.	c #040505",
"h.	c #6F717D",
"i.	c #D6D5DA",
"j.	c #6B6C6C",
"k.	c #0F1316",
"l.	c #171A1D",
"m.	c #12171D",
"n.	c #0F151E",
"o.	c #0B0E11",
"p.	c #0B0D0D",
"q.	c #090A0B",
"r.	c #040404",
"s.	c #CECDD6",
"t.	c #9B9B9A",
"u.	c #1C2022",
"v.	c #1A1E21",
"w.	c #181B1E",
"x.	c #141719",
"y.	c #101212",
"z.	c #0C0D0E",
"A.	c #030304",
"B.	c #070707",
"C.	c #C1C1CF",
"D.	c #BEBEBC",
"E.	c #2B2D2D",
"F.	c #16191C",
"G.	c #1A1D1F",
"H.	c #16181A",
"I.	c #111314",
"J.	c #0C0E0F",
"K.	c #080909",
"L.	c #B8B8C7",
"M.	c #D8D8D8",
"N.	c #525252",
"O.	c #5A5A58",
"P.	c #545453",
"            . + @ # $           ",
"        % & * = - ; > , '       ",
"    ) ! ~ { ] ^ / ( _ : < [     ",
"    } | 1 2 3 4 5 6 7 8 9 0 a   ",
"    b c d e f g h i j k l m n   ",
"  o p q r s t u v w x y z A B C ",
"  D E F G H I J K L M N O P Q R ",
"  S T U V W X Y Z `  ...+.@.#.$.",
"  %.&.*.p =.-.;.>.,.'.).!.~.{.].",
"    ^./.(._.:.<.[.}.|.1.2.3.4.  ",
"    5.6.7.8.9.0.a.b.c.d.e.f.g.  ",
"      h.i.j.k.l.m.n.o.p.q.r.    ",
"      s.t.u.v.w.x.y.z.f.A.B.    ",
"    C.D.E.F.G.H.I.J.q.K.        ",
"  L.M.N.                        ",
"  O.P.                          "};
