/* XPM */
static char * show_location_map_16_xpm[] = {
"16 16 171 2",
"  	c None",
". 	c #EEEAC8",
"+ 	c #E6E27B",
"@ 	c #DDDAC6",
"# 	c #C4C6C6",
"$ 	c #A9ACAE",
"% 	c #A8ABAD",
"& 	c #ACAEAC",
"* 	c #CCD0CA",
"= 	c #F8FEF6",
"- 	c #F3FAF3",
"; 	c #F7F3F6",
"> 	c #F7F5D5",
", 	c #D4D1A8",
"' 	c #A8B8BD",
") 	c #D0E0EB",
"! 	c #E7D5DC",
"~ 	c #E8D5DC",
"{ 	c #DDD3DB",
"] 	c #B6B4B8",
"^ 	c #B1827F",
"/ 	c #FFA9A4",
"( 	c #F7F5F4",
"_ 	c #FFFDFD",
": 	c #D7D3C1",
"< 	c #A1B2A7",
"[ 	c #D1E2D5",
"} 	c #E4EEF5",
"| 	c #D6B9C7",
"1 	c #D9B3C2",
"2 	c #D7B3C0",
"3 	c #D5BFCD",
"4 	c #B0ADB4",
"5 	c #9F5B67",
"6 	c #F9F3F8",
"7 	c #9A8743",
"8 	c #F5D65F",
"9 	c #B8B9A8",
"0 	c #CAC67A",
"a 	c #E4E19C",
"b 	c #D8D9AE",
"c 	c #8CB3DD",
"d 	c #A6C7ED",
"e 	c #B2D0EF",
"f 	c #B5D4EF",
"g 	c #BCD7ED",
"h 	c #617286",
"i 	c #E1CA5F",
"j 	c #A48B2C",
"k 	c #EACC5A",
"l 	c #AFB194",
"m 	c #DBC75F",
"n 	c #DDD27B",
"o 	c #DED37D",
"p 	c #A0B5BC",
"q 	c #96B6E7",
"r 	c #A1BEE4",
"s 	c #A6C1E4",
"t 	c #A6C2EA",
"u 	c #8F969C",
"v 	c #D5B010",
"w 	c #8B731A",
"x 	c #877F72",
"y 	c #E8DDCC",
"z 	c #B0B9B7",
"A 	c #D9E48D",
"B 	c #DDE9CF",
"C 	c #E2EAE4",
"D 	c #E5E9E5",
"E 	c #C6D3E6",
"F 	c #ACC0DF",
"G 	c #AABEDD",
"H 	c #C8D4E7",
"I 	c #A7A8AC",
"J 	c #C3BAA0",
"K 	c #898786",
"L 	c #E3E3E6",
"M 	c #B7C1CB",
"N 	c #DDC884",
"O 	c #DBE8DD",
"P 	c #DFEDF4",
"Q 	c #E6EDEF",
"R 	c #ECF0ED",
"S 	c #E9EDEC",
"T 	c #EEF2EE",
"U 	c #F1EFF0",
"V 	c #99999B",
"W 	c #D2D1D0",
"X 	c #87837F",
"Y 	c #E8EDE3",
"Z 	c #B9A9AD",
"` 	c #D26D83",
" .	c #D3AAB0",
"..	c #E2F3F1",
"+.	c #E9F0EF",
"@.	c #EAF0EE",
"#.	c #EAEDE9",
"$.	c #F0F0EB",
"%.	c #E3DFE5",
"&.	c #7D7B77",
"*.	c #F1EDE3",
"=.	c #7E7874",
"-.	c #E3E4DB",
";.	c #B69486",
">.	c #BBA3A6",
",.	c #CAB7AE",
"'.	c #D4DFDD",
").	c #EBEEEA",
"!.	c #EDEEEA",
"~.	c #EDEAE6",
"{.	c #F1EFF1",
"].	c #898989",
"^.	c #B5B0A8",
"/.	c #ECE7DD",
"(.	c #8A8681",
"_.	c #E1DBD5",
":.	c #C8C7A3",
"<.	c #B5B4B2",
"[.	c #ABB1AB",
"}.	c #B8C1C4",
"|.	c #E0E8E5",
"1.	c #EBEEEC",
"2.	c #CCCECD",
"3.	c #838281",
"4.	c #A19B93",
"5.	c #DDD6CB",
"6.	c #E9E3D8",
"7.	c #898580",
"8.	c #DBD6D1",
"9.	c #D3D2D4",
"0.	c #919184",
"a.	c #8B8667",
"b.	c #9A9592",
"c.	c #8B8883",
"d.	c #86837E",
"e.	c #8F8A83",
"f.	c #C5BFB4",
"g.	c #CEC6BA",
"h.	c #DAD2C6",
"i.	c #E8E1D5",
"j.	c #C6C5D0",
"k.	c #B4B4B4",
"l.	c #9D9827",
"m.	c #D4CC8D",
"n.	c #CFC7C6",
"o.	c #CFC7BB",
"p.	c #CFC6BB",
"q.	c #D1C8BB",
"r.	c #D0C8BB",
"s.	c #CEC6BC",
"t.	c #D5CDC1",
"u.	c #DDD4C8",
"v.	c #B3B3C1",
"w.	c #CCCCCE",
"x.	c #848166",
"y.	c #E4DC28",
"z.	c #C8C183",
"A.	c #C5BEBC",
"B.	c #C9C2B5",
"C.	c #C8C1B5",
"D.	c #C7C0B4",
"E.	c #C3BBAF",
"F.	c #C1B9AF",
"G.	c #BDB5AB",
"H.	c #7A746F",
"I.	c #A6A6BA",
"J.	c #D3D3D7",
"K.	c #7A7A79",
"L.	c #DEDDE5",
"M.	c #A8A8A6",
"N.	c #6E6E6C",
"        . + @ # $ % & * = -     ",
"      ; > , ' ) ! ~ { ] ^ / (   ",
"      _ : < [ } | 1 2 3 4 5 6   ",
"    7 8 9 0 a b c d e f g h i   ",
"    j k l m n o p q r s t u v w ",
"    x y z A B C D E F G H I J   ",
"    K L M N O P Q R S T U V W   ",
"    X Y Z `  ...+.@.#.$.%.&.*.  ",
"    =.-.;.>.,.'.).!.~.{.].^./.  ",
"    (._.:.<.[.}.|.1.2.3.4.5.6.  ",
"    7.8.9.0.a.b.c.d.e.f.g.h.i.  ",
"      j.k.l.m.n.o.p.q.r.s.t.u.  ",
"    v.w.x.y.z.A.B.C.D.E.F.G.H.  ",
"  I.J.K.                        ",
"  L.M.                          ",
"  N.                            "};
